<svg width="47" height="47" viewBox="0 0 47 47" fill="none" xmlns="http://www.w3.org/2000/svg">
<path d="M44.1268 18.7853H41.8777C41.2719 18.7853 40.565 18.2344 40.3264 17.5825C40.1152 16.9766 39.8582 16.3798 39.5736 15.7921C39.2707 15.177 39.3809 14.2864 39.8123 13.8549L41.4188 12.2481C42.5387 11.128 42.5387 9.30084 41.4188 8.1807L38.8209 5.58234C38.2793 5.04063 37.5541 4.73764 36.783 4.73764C36.0119 4.73764 35.2867 5.03145 34.7451 5.58234L33.1479 7.1891C32.8908 7.44618 32.4594 7.60227 32.0004 7.60227C31.7158 7.60227 31.4404 7.54718 31.2109 7.42782C30.6326 7.14319 30.0268 6.89529 29.4209 6.67494C28.7691 6.4454 28.2184 5.72924 28.2184 5.12327V2.8738C28.2184 1.29459 26.924 0 25.3359 0H21.6641C20.076 0 18.7908 1.29459 18.7908 2.8738V5.12327C18.7908 5.72924 18.24 6.4454 17.5883 6.67494C16.9824 6.88611 16.3766 7.14319 15.7982 7.41864C15.5688 7.52881 15.2934 7.59308 15.0088 7.59308C14.5498 7.59308 14.1184 7.437 13.8613 7.17992L12.2641 5.58234C11.7225 5.04063 10.9973 4.73764 10.2262 4.73764C9.45508 4.73764 8.72988 5.04063 8.18828 5.58234L5.58125 8.18988C5.03965 8.73159 4.73672 9.45693 4.73672 10.2282C4.73672 10.9994 5.03965 11.7156 5.58125 12.2573L7.1877 13.864C7.61914 14.2956 7.7293 15.1862 7.43555 15.8013C7.15098 16.3889 6.90313 16.9857 6.68281 17.5917C6.45332 18.2436 5.7373 18.7945 5.13145 18.7945H2.88242C1.29434 18.7853 0 20.0799 0 21.6683V25.3409C0 26.9293 1.29434 28.2147 2.87324 28.2147H5.12227C5.72813 28.2147 6.44414 28.7656 6.67363 29.4175C6.88477 30.0234 7.1418 30.6202 7.42637 31.2079C7.7293 31.823 7.60996 32.7136 7.17852 33.1451L5.57207 34.7519C4.45215 35.872 4.45215 37.6992 5.57207 38.8193L8.1791 41.4268C8.7207 41.9686 9.4459 42.2715 10.217 42.2715C10.9881 42.2715 11.7041 41.9686 12.2549 41.4268L13.8613 39.8201C14.1184 39.563 14.5498 39.4069 15.0088 39.4069C15.2934 39.4069 15.5688 39.462 15.7982 39.5814C16.3766 39.866 16.9824 40.1139 17.5883 40.3251C18.24 40.5546 18.7908 41.2708 18.7908 41.8767V44.1262C18.7908 45.7146 20.0852 47 21.6641 47H25.3359C26.924 47 28.2184 45.7054 28.2184 44.1262V41.8767C28.2184 41.2708 28.7691 40.5546 29.4209 40.3251C30.0268 40.1139 30.6326 39.8568 31.2109 39.5814C31.4312 39.4712 31.7158 39.4069 32.0004 39.4069C32.4594 39.4069 32.8908 39.563 33.1479 39.8201L34.7451 41.4268C35.2867 41.9686 36.0119 42.2715 36.783 42.2715C37.5541 42.2715 38.2701 41.9686 38.8209 41.4268L41.4188 38.8193C42.5387 37.6992 42.5387 35.872 41.4188 34.7519L39.8215 33.1543C39.39 32.7228 39.2799 31.8322 39.5828 31.217C39.8674 30.6386 40.1152 30.0326 40.3264 29.4266C40.5559 28.7748 41.2719 28.2239 41.8777 28.2239H44.1268C45.7148 28.2239 47 26.9293 47 25.3501V21.6683C47 20.0799 45.7057 18.7853 44.1268 18.7853ZM23.5 31.9424C18.8459 31.9424 15.0639 28.1596 15.0639 23.5046C15.0639 18.8588 18.8459 15.0668 23.5 15.0668C28.1541 15.0668 31.9361 18.8496 31.9361 23.5046C31.9361 28.1504 28.1541 31.9424 23.5 31.9424Z" fill="#231F20"/>
</svg>
